<svg xmlns="http://www.w3.org/2000/svg" viewBox="0 0 64 64" role="img" aria-labelledby="title desc">
  <title>触发警告</title>
  <desc>橙色背景中的警示符号</desc>
  <defs>
    <linearGradient id="gradient" x1="0%" y1="0%" x2="100%" y2="100%">
      <stop offset="0%" stop-color="#FDBA74" />
      <stop offset="100%" stop-color="#F97316" />
    </linearGradient>
  </defs>
  <rect width="64" height="64" rx="14" fill="url(#gradient)" />
  <path
    d="M32 14a4 4 0 0 0-3.5 2L14 44.5c-.9 1.6-.9 3.4 0 5a4 4 0 0 0 3.5 2h29c1.5 0 2.8-.8 3.5-2 1-1.6 1-3.4 0-5L35.5 16a4 4 0 0 0-3.5-2Z"
    fill="#fff"
    opacity="0.85"
  />
  <path
    d="M32 23c1.2 0 2.2.9 2.3 2.1l.7 12c.1 1.3-.9 2.4-2.3 2.4s-2.4-1.1-2.3-2.4l.7-12c.1-1.2 1.1-2.1 2.3-2.1Z"
    fill="#F97316"
  />
  <circle cx="32" cy="42" r="3" fill="#F97316" />
</svg>
